<svg width="43" height="43" viewBox="0 0 43 43" fill="none" xmlns="http://www.w3.org/2000/svg">
<circle cx="21.5" cy="21.5" r="21.5" fill="#E8F3F1"/>
<path fill-rule="evenodd" clip-rule="evenodd" d="M24.7158 25.9736H17.4958C17.0818 25.9736 16.7458 25.6376 16.7458 25.2236C16.7458 24.8096 17.0818 24.4736 17.4958 24.4736H24.7158C25.1298 24.4736 25.4658 24.8096 25.4658 25.2236C25.4658 25.6376 25.1298 25.9736 24.7158 25.9736Z" fill="#199A8E"/>
<path fill-rule="evenodd" clip-rule="evenodd" d="M24.7158 21.7874H17.4958C17.0818 21.7874 16.7458 21.4514 16.7458 21.0374C16.7458 20.6234 17.0818 20.2874 17.4958 20.2874H24.7158C25.1298 20.2874 25.4658 20.6234 25.4658 21.0374C25.4658 21.4514 25.1298 21.7874 24.7158 21.7874Z" fill="#199A8E"/>
<path fill-rule="evenodd" clip-rule="evenodd" d="M20.2505 17.6104H17.4955C17.0815 17.6104 16.7455 17.2744 16.7455 16.8604C16.7455 16.4464 17.0815 16.1104 17.4955 16.1104H20.2505C20.6645 16.1104 21.0005 16.4464 21.0005 16.8604C21.0005 17.2744 20.6645 17.6104 20.2505 17.6104Z" fill="#199A8E"/>
<mask id="mask0_1_1155" style="mask-type:luminance" maskUnits="userSpaceOnUse" x="12" y="11" width="19" height="20">
<path fill-rule="evenodd" clip-rule="evenodd" d="M12 11.0002H30.1647V30.91H12V11.0002Z" fill="white"/>
</mask>
<g mask="url(#mask0_1_1155)">
<path fill-rule="evenodd" clip-rule="evenodd" d="M24.9088 12.5L17.2198 12.504C14.8918 12.518 13.4998 13.958 13.4998 16.357V25.553C13.4998 27.968 14.9048 29.41 17.2558 29.41L24.9448 29.407C27.2728 29.393 28.6648 27.951 28.6648 25.553V16.357C28.6648 13.942 27.2608 12.5 24.9088 12.5ZM17.2568 30.91C14.1128 30.91 11.9998 28.757 11.9998 25.553V16.357C11.9998 13.124 14.0468 11.023 17.2148 11.004L24.9078 11H24.9088C28.0528 11 30.1648 13.153 30.1648 16.357V25.553C30.1648 28.785 28.1178 30.887 24.9498 30.907L17.2568 30.91Z" fill="#199A8E"/>
</g>
</svg>
