<svg width="186" height="193" viewBox="0 0 186 193" fill="none" xmlns="http://www.w3.org/2000/svg">
<path d="M86.3486 0.5H99.2051C109.647 0.5 118.11 8.96292 118.11 19.4053V32.5547C118.11 36.3441 121.182 39.4258 124.981 39.4258H138.131C148.573 39.4258 157.036 47.8887 157.036 58.3311V71.1875C157.036 81.6298 148.573 90.0927 138.131 90.0928H130.598C128.105 90.0928 126.084 88.0713 126.084 85.5791C126.084 83.087 128.106 81.0664 130.598 81.0664H138.131C143.589 81.0663 148.019 76.6366 148.019 71.1787V58.3213C148.018 52.8636 143.589 48.4346 138.131 48.4346H124.963C116.189 48.4343 109.075 41.32 109.075 32.5459V19.4053C109.075 13.9474 104.645 9.5176 99.1875 9.51758H86.3311C80.8734 9.51758 76.4434 13.9382 76.4434 19.4053V29.1299C76.4434 37.4698 79.6902 45.3161 85.5869 51.2129L106.296 71.9229C113.903 79.5216 118.084 89.6339 118.084 100.389V110.113L118.078 110.601C117.828 120.809 109.467 129.019 99.1875 129.019H86.3311C75.8888 129.019 67.4259 120.556 67.4258 110.113V96.9629C67.4255 93.1737 64.3537 90.0928 60.5547 90.0928H47.4053C36.9629 90.0928 28.5 81.6298 28.5 71.1875V58.3311C28.5 47.8887 36.9629 39.4258 47.4053 39.4258H54.9473C57.4393 39.4259 59.4598 41.4465 59.46 43.9385C59.46 46.4306 57.4394 48.452 54.9473 48.4521H47.4053C41.9473 48.4521 37.5176 52.8819 37.5176 58.3398V71.1963C37.5176 76.6542 41.9473 81.084 47.4053 81.084H60.5547C69.3291 81.084 76.4521 88.1985 76.4521 96.9814V110.131C76.4522 115.589 80.882 120.019 86.3398 120.019H99.1963C104.654 120.019 109.084 115.589 109.084 110.131V100.406C109.084 92.0663 105.837 84.219 99.9404 78.3223L79.2314 57.6045C71.6321 49.9964 67.4434 39.893 67.4434 29.1387V19.4053C67.4434 8.96292 75.9063 0.5 86.3486 0.5Z" fill="white" stroke="black"/>
<mask id="path-2-inside-1_5_1934" fill="white">
<path d="M36.0824 179.777L36.0323 158.729L25.7087 176.068H22.0504L11.7769 159.18V179.777H4.1595V144.697H10.8748L24.0048 166.497L36.9344 144.697H43.5996L43.6998 179.777H36.0824ZM77.8818 166.396C77.8818 166.497 77.8317 167.198 77.7314 168.501H57.3349C57.7024 170.172 58.571 171.491 59.9408 172.46C61.3106 173.429 63.0145 173.913 65.0525 173.913C66.4557 173.913 67.6919 173.713 68.761 173.312C69.8635 172.878 70.8825 172.21 71.8179 171.308L75.9774 175.818C73.4383 178.724 69.7298 180.178 64.852 180.178C61.8118 180.178 59.1223 179.593 56.7836 178.424C54.4449 177.221 52.6408 175.567 51.3712 173.462C50.1017 171.358 49.4669 168.969 49.4669 166.296C49.4669 163.657 50.085 161.285 51.3211 159.18C52.5907 157.042 54.3113 155.388 56.4829 154.218C58.688 153.016 61.1436 152.414 63.8497 152.414C66.4891 152.414 68.8779 152.982 71.0161 154.118C73.1543 155.254 74.8248 156.891 76.0276 159.029C77.2637 161.134 77.8818 163.59 77.8818 166.396ZM63.8999 158.328C62.1291 158.328 60.6424 158.829 59.4397 159.831C58.2369 160.834 57.5019 162.203 57.2346 163.941H70.515C70.2477 162.237 69.5127 160.884 68.3099 159.881C67.1072 158.846 65.6372 158.328 63.8999 158.328ZM110.549 142.592V179.777H103.082V176.67C101.145 179.008 98.3382 180.178 94.6631 180.178C92.124 180.178 89.8187 179.61 87.7473 178.474C85.7093 177.338 84.1056 175.718 82.9363 173.613C81.767 171.508 81.1823 169.069 81.1823 166.296C81.1823 163.523 81.767 161.084 82.9363 158.979C84.1056 156.875 85.7093 155.254 87.7473 154.118C89.8187 152.982 92.124 152.414 94.6631 152.414C98.1043 152.414 100.794 153.5 102.732 155.672V142.592H110.549ZM96.0162 173.763C97.9874 173.763 99.6244 173.095 100.927 171.759C102.23 170.389 102.882 168.568 102.882 166.296C102.882 164.024 102.23 162.22 100.927 160.884C99.6244 159.514 97.9874 158.829 96.0162 158.829C94.0116 158.829 92.3578 159.514 91.0549 160.884C89.7519 162.22 89.1004 164.024 89.1004 166.296C89.1004 168.568 89.7519 170.389 91.0549 171.759C92.3578 173.095 94.0116 173.763 96.0162 173.763ZM117.785 152.815H125.603V179.777H117.785V152.815ZM121.694 149.057C120.257 149.057 119.088 148.639 118.186 147.804C117.284 146.969 116.833 145.933 116.833 144.697C116.833 143.461 117.284 142.425 118.186 141.59C119.088 140.754 120.257 140.337 121.694 140.337C123.131 140.337 124.3 140.738 125.202 141.54C126.104 142.341 126.555 143.344 126.555 144.546C126.555 145.849 126.104 146.935 125.202 147.804C124.3 148.639 123.131 149.057 121.694 149.057ZM145.888 180.178C143.015 180.178 140.426 179.593 138.121 178.424C135.849 177.221 134.061 175.567 132.758 173.462C131.489 171.358 130.854 168.969 130.854 166.296C130.854 163.623 131.489 161.235 132.758 159.13C134.061 157.025 135.849 155.388 138.121 154.218C140.426 153.016 143.015 152.414 145.888 152.414C148.728 152.414 151.2 153.016 153.305 154.218C155.443 155.388 156.997 157.075 157.966 159.28L151.902 162.537C150.499 160.065 148.478 158.829 145.838 158.829C143.8 158.829 142.113 159.497 140.777 160.834C139.44 162.17 138.772 163.991 138.772 166.296C138.772 168.601 139.44 170.422 140.777 171.759C142.113 173.095 143.8 173.763 145.838 173.763C148.511 173.763 150.532 172.527 151.902 170.055L157.966 173.362C156.997 175.5 155.443 177.171 153.305 178.374C151.2 179.576 148.728 180.178 145.888 180.178ZM171.538 180.178C169.299 180.178 167.111 179.91 164.973 179.376C162.835 178.808 161.131 178.106 159.861 177.271L162.467 171.658C163.67 172.427 165.123 173.062 166.827 173.563C168.531 174.03 170.202 174.264 171.839 174.264C175.146 174.264 176.8 173.446 176.8 171.809C176.8 171.04 176.349 170.489 175.447 170.155C174.545 169.821 173.158 169.537 171.287 169.303C169.082 168.969 167.261 168.585 165.825 168.15C164.388 167.716 163.135 166.948 162.066 165.845C161.031 164.743 160.513 163.172 160.513 161.134C160.513 159.43 160.997 157.927 161.966 156.624C162.968 155.288 164.405 154.252 166.276 153.517C168.18 152.782 170.419 152.414 172.991 152.414C174.896 152.414 176.783 152.632 178.654 153.066C180.558 153.467 182.129 154.035 183.365 154.77L180.759 160.332C178.387 158.996 175.798 158.328 172.991 158.328C171.321 158.328 170.068 158.562 169.233 159.029C168.397 159.497 167.98 160.099 167.98 160.834C167.98 161.669 168.431 162.253 169.333 162.588C170.235 162.922 171.672 163.239 173.643 163.54C175.848 163.907 177.652 164.308 179.055 164.743C180.458 165.143 181.678 165.895 182.713 166.998C183.749 168.1 184.267 169.637 184.267 171.608C184.267 173.279 183.766 174.765 182.764 176.068C181.761 177.371 180.291 178.39 178.353 179.125C176.449 179.827 174.177 180.178 171.538 180.178Z"/>
</mask>
<path d="M36.0824 179.777L36.0323 158.729L25.7087 176.068H22.0504L11.7769 159.18V179.777H4.1595V144.697H10.8748L24.0048 166.497L36.9344 144.697H43.5996L43.6998 179.777H36.0824ZM77.8818 166.396C77.8818 166.497 77.8317 167.198 77.7314 168.501H57.3349C57.7024 170.172 58.571 171.491 59.9408 172.46C61.3106 173.429 63.0145 173.913 65.0525 173.913C66.4557 173.913 67.6919 173.713 68.761 173.312C69.8635 172.878 70.8825 172.21 71.8179 171.308L75.9774 175.818C73.4383 178.724 69.7298 180.178 64.852 180.178C61.8118 180.178 59.1223 179.593 56.7836 178.424C54.4449 177.221 52.6408 175.567 51.3712 173.462C50.1017 171.358 49.4669 168.969 49.4669 166.296C49.4669 163.657 50.085 161.285 51.3211 159.18C52.5907 157.042 54.3113 155.388 56.4829 154.218C58.688 153.016 61.1436 152.414 63.8497 152.414C66.4891 152.414 68.8779 152.982 71.0161 154.118C73.1543 155.254 74.8248 156.891 76.0276 159.029C77.2637 161.134 77.8818 163.59 77.8818 166.396ZM63.8999 158.328C62.1291 158.328 60.6424 158.829 59.4397 159.831C58.2369 160.834 57.5019 162.203 57.2346 163.941H70.515C70.2477 162.237 69.5127 160.884 68.3099 159.881C67.1072 158.846 65.6372 158.328 63.8999 158.328ZM110.549 142.592V179.777H103.082V176.67C101.145 179.008 98.3382 180.178 94.6631 180.178C92.124 180.178 89.8187 179.61 87.7473 178.474C85.7093 177.338 84.1056 175.718 82.9363 173.613C81.767 171.508 81.1823 169.069 81.1823 166.296C81.1823 163.523 81.767 161.084 82.9363 158.979C84.1056 156.875 85.7093 155.254 87.7473 154.118C89.8187 152.982 92.124 152.414 94.6631 152.414C98.1043 152.414 100.794 153.5 102.732 155.672V142.592H110.549ZM96.0162 173.763C97.9874 173.763 99.6244 173.095 100.927 171.759C102.23 170.389 102.882 168.568 102.882 166.296C102.882 164.024 102.23 162.22 100.927 160.884C99.6244 159.514 97.9874 158.829 96.0162 158.829C94.0116 158.829 92.3578 159.514 91.0549 160.884C89.7519 162.22 89.1004 164.024 89.1004 166.296C89.1004 168.568 89.7519 170.389 91.0549 171.759C92.3578 173.095 94.0116 173.763 96.0162 173.763ZM117.785 152.815H125.603V179.777H117.785V152.815ZM121.694 149.057C120.257 149.057 119.088 148.639 118.186 147.804C117.284 146.969 116.833 145.933 116.833 144.697C116.833 143.461 117.284 142.425 118.186 141.59C119.088 140.754 120.257 140.337 121.694 140.337C123.131 140.337 124.3 140.738 125.202 141.54C126.104 142.341 126.555 143.344 126.555 144.546C126.555 145.849 126.104 146.935 125.202 147.804C124.3 148.639 123.131 149.057 121.694 149.057ZM145.888 180.178C143.015 180.178 140.426 179.593 138.121 178.424C135.849 177.221 134.061 175.567 132.758 173.462C131.489 171.358 130.854 168.969 130.854 166.296C130.854 163.623 131.489 161.235 132.758 159.13C134.061 157.025 135.849 155.388 138.121 154.218C140.426 153.016 143.015 152.414 145.888 152.414C148.728 152.414 151.2 153.016 153.305 154.218C155.443 155.388 156.997 157.075 157.966 159.28L151.902 162.537C150.499 160.065 148.478 158.829 145.838 158.829C143.8 158.829 142.113 159.497 140.777 160.834C139.44 162.17 138.772 163.991 138.772 166.296C138.772 168.601 139.44 170.422 140.777 171.759C142.113 173.095 143.8 173.763 145.838 173.763C148.511 173.763 150.532 172.527 151.902 170.055L157.966 173.362C156.997 175.5 155.443 177.171 153.305 178.374C151.2 179.576 148.728 180.178 145.888 180.178ZM171.538 180.178C169.299 180.178 167.111 179.91 164.973 179.376C162.835 178.808 161.131 178.106 159.861 177.271L162.467 171.658C163.67 172.427 165.123 173.062 166.827 173.563C168.531 174.03 170.202 174.264 171.839 174.264C175.146 174.264 176.8 173.446 176.8 171.809C176.8 171.04 176.349 170.489 175.447 170.155C174.545 169.821 173.158 169.537 171.287 169.303C169.082 168.969 167.261 168.585 165.825 168.15C164.388 167.716 163.135 166.948 162.066 165.845C161.031 164.743 160.513 163.172 160.513 161.134C160.513 159.43 160.997 157.927 161.966 156.624C162.968 155.288 164.405 154.252 166.276 153.517C168.18 152.782 170.419 152.414 172.991 152.414C174.896 152.414 176.783 152.632 178.654 153.066C180.558 153.467 182.129 154.035 183.365 154.77L180.759 160.332C178.387 158.996 175.798 158.328 172.991 158.328C171.321 158.328 170.068 158.562 169.233 159.029C168.397 159.497 167.98 160.099 167.98 160.834C167.98 161.669 168.431 162.253 169.333 162.588C170.235 162.922 171.672 163.239 173.643 163.54C175.848 163.907 177.652 164.308 179.055 164.743C180.458 165.143 181.678 165.895 182.713 166.998C183.749 168.1 184.267 169.637 184.267 171.608C184.267 173.279 183.766 174.765 182.764 176.068C181.761 177.371 180.291 178.39 178.353 179.125C176.449 179.827 174.177 180.178 171.538 180.178Z" fill="white"/>
<path d="M36.0824 179.777L35.0824 179.779L35.0848 180.777H36.0824V179.777ZM36.0323 158.729L37.0323 158.726L37.0237 155.109L35.1731 158.217L36.0323 158.729ZM25.7087 176.068V177.068H26.2772L26.568 176.58L25.7087 176.068ZM22.0504 176.068L21.196 176.588L21.4882 177.068H22.0504V176.068ZM11.7769 159.18L12.6312 158.66L10.7769 155.612V159.18H11.7769ZM11.7769 179.777V180.777H12.7769V179.777H11.7769ZM4.1595 179.777H3.1595V180.777H4.1595V179.777ZM4.1595 144.697V143.697H3.1595V144.697H4.1595ZM10.8748 144.697L11.7315 144.181L11.4399 143.697H10.8748V144.697ZM24.0048 166.497L23.1482 167.012L24.0114 168.446L24.8649 167.007L24.0048 166.497ZM36.9344 144.697V143.697H36.3648L36.0743 144.187L36.9344 144.697ZM43.5996 144.697L44.5996 144.694L44.5967 143.697H43.5996V144.697ZM43.6998 179.777V180.777H44.7027L44.6998 179.774L43.6998 179.777ZM36.0824 179.777L37.0824 179.774L37.0323 158.726L36.0323 158.729L35.0323 158.731L35.0824 179.779L36.0824 179.777ZM36.0323 158.729L35.1731 158.217L24.8495 175.557L25.7087 176.068L26.568 176.58L36.8915 159.24L36.0323 158.729ZM25.7087 176.068V175.068H22.0504V176.068V177.068H25.7087V176.068ZM22.0504 176.068L22.9047 175.549L12.6312 158.66L11.7769 159.18L10.9226 159.7L21.196 176.588L22.0504 176.068ZM11.7769 159.18H10.7769V179.777H11.7769H12.7769V159.18H11.7769ZM11.7769 179.777V178.777H4.1595V179.777V180.777H11.7769V179.777ZM4.1595 179.777H5.1595V144.697H4.1595H3.1595V179.777H4.1595ZM4.1595 144.697V145.697H10.8748V144.697V143.697H4.1595V144.697ZM10.8748 144.697L10.0182 145.213L23.1482 167.012L24.0048 166.497L24.8615 165.981L11.7315 144.181L10.8748 144.697ZM24.0048 166.497L24.8649 167.007L37.7945 145.207L36.9344 144.697L36.0743 144.187L23.1447 165.986L24.0048 166.497ZM36.9344 144.697V145.697H43.5996V144.697V143.697H36.9344V144.697ZM43.5996 144.697L42.5996 144.7L42.6998 179.78L43.6998 179.777L44.6998 179.774L44.5996 144.694L43.5996 144.697ZM43.6998 179.777V178.777H36.0824V179.777V180.777H43.6998V179.777ZM77.7314 168.501V169.501H78.6575L78.7285 168.578L77.7314 168.501ZM57.3349 168.501V167.501H56.0909L56.3582 168.716L57.3349 168.501ZM59.9408 172.46L60.5183 171.644L60.5183 171.644L59.9408 172.46ZM68.761 173.312L69.1121 174.248L69.1198 174.246L69.1275 174.242L68.761 173.312ZM71.8179 171.308L72.5531 170.63L71.8599 169.878L71.1238 170.588L71.8179 171.308ZM75.9774 175.818L76.7306 176.476L77.3211 175.8L76.7126 175.14L75.9774 175.818ZM56.7836 178.424L56.3262 179.313L56.3364 179.318L56.7836 178.424ZM51.3712 173.462L50.5149 173.979L50.5149 173.979L51.3712 173.462ZM51.3211 159.18L50.4613 158.669L50.4588 158.673L51.3211 159.18ZM56.4829 154.218L56.957 155.099L56.9618 155.096L56.4829 154.218ZM71.0161 154.118L71.4853 153.235L71.4853 153.235L71.0161 154.118ZM76.0276 159.029L75.156 159.52L75.1606 159.528L75.1653 159.536L76.0276 159.029ZM59.4397 159.831L58.7995 159.063L58.7995 159.063L59.4397 159.831ZM57.2346 163.941L56.2463 163.789L56.069 164.941H57.2346V163.941ZM70.515 163.941V164.941H71.6841L71.5029 163.786L70.515 163.941ZM68.3099 159.881L67.6574 160.639L67.6635 160.644L67.6697 160.65L68.3099 159.881ZM77.8818 166.396H76.8818C76.8818 166.383 76.8813 166.41 76.8743 166.522C76.8684 166.618 76.8592 166.752 76.8467 166.926C76.8219 167.274 76.7845 167.773 76.7344 168.424L77.7314 168.501L78.7285 168.578C78.8259 167.312 78.8818 166.547 78.8818 166.396H77.8818ZM77.7314 168.501V167.501H57.3349V168.501V169.501H77.7314V168.501ZM57.3349 168.501L56.3582 168.716C56.7781 170.624 57.7859 172.161 59.3633 173.277L59.9408 172.46L60.5183 171.644C59.3561 170.822 58.6267 169.719 58.3115 168.286L57.3349 168.501ZM59.9408 172.46L59.3633 173.277C60.9355 174.389 62.8528 174.913 65.0525 174.913V173.913V172.913C63.1762 172.913 61.6857 172.469 60.5183 171.644L59.9408 172.46ZM65.0525 173.913V174.913C66.5491 174.913 67.9083 174.7 69.1121 174.248L68.761 173.312L68.4098 172.376C67.4754 172.726 66.3623 172.913 65.0525 172.913V173.913ZM68.761 173.312L69.1275 174.242C70.3633 173.756 71.4914 173.012 72.5121 172.027L71.8179 171.308L71.1238 170.588C70.2735 171.408 69.3637 172 68.3944 172.382L68.761 173.312ZM71.8179 171.308L71.0828 171.985L75.2423 176.496L75.9774 175.818L76.7126 175.14L72.5531 170.63L71.8179 171.308ZM75.9774 175.818L75.2243 175.16C72.9231 177.794 69.5231 179.178 64.852 179.178V180.178V181.178C69.9366 181.178 73.9536 179.655 76.7306 176.476L75.9774 175.818ZM64.852 180.178V179.178C61.9417 179.178 59.4097 178.619 57.2308 177.529L56.7836 178.424L56.3364 179.318C58.8349 180.567 61.6818 181.178 64.852 181.178V180.178ZM56.7836 178.424L57.241 177.534C55.0553 176.41 53.3945 174.881 52.2275 172.946L51.3712 173.462L50.5149 173.979C51.8871 176.254 53.8346 178.032 56.3263 179.313L56.7836 178.424ZM51.3712 173.462L52.2275 172.946C51.0601 171.011 50.4669 168.803 50.4669 166.296H49.4669H48.4669C48.4669 169.134 49.1432 171.705 50.5149 173.979L51.3712 173.462ZM49.4669 166.296H50.4669C50.4669 163.82 51.0447 161.625 52.1834 159.686L51.3211 159.18L50.4588 158.673C49.1252 160.944 48.4669 163.494 48.4669 166.296H49.4669ZM51.3211 159.18L52.181 159.69C53.3587 157.707 54.9465 156.182 56.957 155.099L56.4829 154.218L56.0088 153.338C53.676 154.594 51.8227 156.376 50.4613 158.669L51.3211 159.18ZM56.4829 154.218L56.9618 155.096C59.0087 153.98 61.2976 153.414 63.8497 153.414V152.414V151.414C60.9896 151.414 58.3673 152.052 56.0041 153.341L56.4829 154.218ZM63.8497 152.414V153.414C66.3406 153.414 68.566 153.949 70.547 155.001L71.0161 154.118L71.4853 153.235C69.1898 152.016 66.6376 151.414 63.8497 151.414V152.414ZM71.0161 154.118L70.547 155.001C72.5139 156.046 74.0457 157.546 75.156 159.52L76.0276 159.029L76.8991 158.539C75.6039 156.237 73.7948 154.462 71.4853 153.235L71.0161 154.118ZM76.0276 159.029L75.1653 159.536C76.2985 161.465 76.8818 163.741 76.8818 166.396H77.8818H78.8818C78.8818 163.439 78.229 160.803 76.8898 158.523L76.0276 159.029ZM63.8999 158.328V157.328C61.9277 157.328 60.2054 157.891 58.7995 159.063L59.4397 159.831L60.0799 160.6C61.0794 159.767 62.3306 159.328 63.8999 159.328V158.328ZM59.4397 159.831L58.7995 159.063C57.3862 160.241 56.5457 161.842 56.2463 163.789L57.2346 163.941L58.223 164.093C58.4581 162.565 59.0877 161.426 60.0799 160.6L59.4397 159.831ZM57.2346 163.941V164.941H70.515V163.941V162.941H57.2346V163.941ZM70.515 163.941L71.5029 163.786C71.2021 161.868 70.3588 160.287 68.9501 159.113L68.3099 159.881L67.6697 160.65C68.6665 161.48 69.2933 162.605 69.527 164.096L70.515 163.941ZM68.3099 159.881L68.9625 159.124C67.5606 157.916 65.8523 157.328 63.8999 157.328V158.328V159.328C65.422 159.328 66.6538 159.775 67.6574 160.639L68.3099 159.881ZM110.549 142.592H111.549V141.592H110.549V142.592ZM110.549 179.777V180.777H111.549V179.777H110.549ZM103.082 179.777H102.082V180.777H103.082V179.777ZM103.082 176.67H104.082V173.896L102.312 176.032L103.082 176.67ZM87.7473 178.474L87.2604 179.347L87.2665 179.351L87.7473 178.474ZM82.9363 173.613L83.8105 173.127L83.8105 173.127L82.9363 173.613ZM82.9363 158.979L83.8105 159.465L83.8105 159.465L82.9363 158.979ZM87.7473 154.118L87.2665 153.241L87.2604 153.245L87.7473 154.118ZM102.732 155.672L101.985 156.338L103.732 158.294V155.672H102.732ZM102.732 142.592V141.592H101.732V142.592H102.732ZM100.927 171.759L101.643 172.457L101.652 172.448L100.927 171.759ZM100.927 160.884L100.203 161.573L100.211 161.582L100.927 160.884ZM91.0549 160.884L91.7709 161.582L91.7794 161.573L91.0549 160.884ZM91.0549 171.759L90.3302 172.448L90.3389 172.457L91.0549 171.759ZM110.549 142.592H109.549V179.777H110.549H111.549V142.592H110.549ZM110.549 179.777V178.777H103.082V179.777V180.777H110.549V179.777ZM103.082 179.777H104.082V176.67H103.082H102.082V179.777H103.082ZM103.082 176.67L102.312 176.032C100.604 178.093 98.1093 179.178 94.6631 179.178V180.178V181.178C98.567 181.178 101.685 179.924 103.852 177.308L103.082 176.67ZM94.6631 180.178V179.178C92.2791 179.178 90.1412 178.646 88.2281 177.597L87.7473 178.474L87.2665 179.351C89.4962 180.573 91.9688 181.178 94.6631 181.178V180.178ZM87.7473 178.474L88.2342 177.6C86.3643 176.558 84.8924 175.075 83.8105 173.127L82.9363 173.613L82.0621 174.098C83.3189 176.361 85.0544 178.118 87.2604 179.347L87.7473 178.474ZM82.9363 173.613L83.8105 173.127C82.7354 171.192 82.1823 168.925 82.1823 166.296H81.1823H80.1823C80.1823 169.213 80.7985 171.824 82.0621 174.098L82.9363 173.613ZM81.1823 166.296H82.1823C82.1823 163.667 82.7354 161.4 83.8105 159.465L82.9363 158.979L82.0621 158.494C80.7985 160.768 80.1823 163.379 80.1823 166.296H81.1823ZM82.9363 158.979L83.8105 159.465C84.8924 157.518 86.3643 156.034 88.2342 154.992L87.7473 154.118L87.2604 153.245C85.0544 154.474 83.3189 156.232 82.0621 158.494L82.9363 158.979ZM87.7473 154.118L88.2281 154.995C90.1412 153.946 92.2791 153.414 94.6631 153.414V152.414V151.414C91.9688 151.414 89.4962 152.019 87.2665 153.241L87.7473 154.118ZM94.6631 152.414V153.414C97.8762 153.414 100.272 154.418 101.985 156.338L102.732 155.672L103.478 155.006C101.315 152.583 98.3323 151.414 94.6631 151.414V152.414ZM102.732 155.672H103.732V142.592H102.732H101.732V155.672H102.732ZM102.732 142.592V143.592H110.549V142.592V141.592H102.732V142.592ZM96.0162 173.763V174.763C98.2401 174.763 100.141 173.998 101.643 172.457L100.927 171.759L100.211 171.06C99.1081 172.192 97.7346 172.763 96.0162 172.763V173.763ZM100.927 171.759L101.652 172.448C103.166 170.856 103.882 168.77 103.882 166.296H102.882H101.882C101.882 168.366 101.294 169.922 100.203 171.069L100.927 171.759ZM102.882 166.296H103.882C103.882 163.824 103.167 161.748 101.643 160.186L100.927 160.884L100.211 161.582C101.294 162.692 101.882 164.225 101.882 166.296H102.882ZM100.927 160.884L101.652 160.194C100.151 158.617 98.2481 157.829 96.0162 157.829V158.829V159.829C97.7266 159.829 99.0975 160.411 100.203 161.573L100.927 160.884ZM96.0162 158.829V157.829C93.7562 157.829 91.8344 158.613 90.3303 160.194L91.0549 160.884L91.7794 161.573C92.8812 160.415 94.267 159.829 96.0162 159.829V158.829ZM91.0549 160.884L90.3389 160.186C88.8157 161.748 88.1004 163.824 88.1004 166.296H89.1004H90.1004C90.1004 164.225 90.688 162.692 91.7709 161.582L91.0549 160.884ZM89.1004 166.296H88.1004C88.1004 168.77 88.8159 170.856 90.3303 172.448L91.0549 171.759L91.7794 171.069C90.6878 169.922 90.1004 168.366 90.1004 166.296H89.1004ZM91.0549 171.759L90.3389 172.457C91.845 174.001 93.7642 174.763 96.0162 174.763V173.763V172.763C94.2591 172.763 92.8707 172.188 91.7709 171.06L91.0549 171.759ZM117.785 152.815V151.815H116.785V152.815H117.785ZM125.603 152.815H126.603V151.815H125.603V152.815ZM125.603 179.777V180.777H126.603V179.777H125.603ZM117.785 179.777H116.785V180.777H117.785V179.777ZM118.186 147.804L117.507 148.538L117.507 148.538L118.186 147.804ZM118.186 141.59L118.865 142.323L118.865 142.323L118.186 141.59ZM125.202 141.54L124.538 142.287L124.538 142.287L125.202 141.54ZM125.202 147.804L125.881 148.538L125.889 148.531L125.896 148.524L125.202 147.804ZM117.785 152.815V153.815H125.603V152.815V151.815H117.785V152.815ZM125.603 152.815H124.603V179.777H125.603H126.603V152.815H125.603ZM125.603 179.777V178.777H117.785V179.777V180.777H125.603V179.777ZM117.785 179.777H118.785V152.815H117.785H116.785V179.777H117.785ZM121.694 149.057V148.057C120.464 148.057 119.552 147.706 118.865 147.07L118.186 147.804L117.507 148.538C118.624 149.572 120.051 150.057 121.694 150.057V149.057ZM118.186 147.804L118.865 147.07C118.169 146.425 117.833 145.656 117.833 144.697H116.833H115.833C115.833 146.21 116.399 147.512 117.507 148.538L118.186 147.804ZM116.833 144.697H117.833C117.833 143.737 118.169 142.968 118.865 142.323L118.186 141.59L117.507 140.856C116.399 141.882 115.833 143.184 115.833 144.697H116.833ZM118.186 141.59L118.865 142.323C119.552 141.688 120.464 141.337 121.694 141.337V140.337V139.337C120.051 139.337 118.624 139.821 117.507 140.856L118.186 141.59ZM121.694 140.337V141.337C122.935 141.337 123.852 141.678 124.538 142.287L125.202 141.54L125.866 140.792C124.748 139.798 123.326 139.337 121.694 139.337V140.337ZM125.202 141.54L124.538 142.287C125.227 142.9 125.555 143.63 125.555 144.546H126.555H127.555C127.555 143.057 126.981 141.783 125.866 140.792L125.202 141.54ZM126.555 144.546H125.555C125.555 145.59 125.206 146.412 124.508 147.084L125.202 147.804L125.896 148.524C127.002 147.459 127.555 146.109 127.555 144.546H126.555ZM125.202 147.804L124.523 147.07C123.836 147.706 122.924 148.057 121.694 148.057V149.057V150.057C123.337 150.057 124.764 149.572 125.881 148.538L125.202 147.804ZM138.121 178.424L137.653 179.308L137.66 179.312L137.668 179.316L138.121 178.424ZM132.758 173.462L131.902 173.979L131.908 173.989L132.758 173.462ZM132.758 159.13L131.908 158.603L131.902 158.613L132.758 159.13ZM138.121 154.218L138.578 155.108L138.583 155.105L138.121 154.218ZM153.305 154.218L152.809 155.087L152.817 155.091L152.825 155.096L153.305 154.218ZM157.966 159.28L158.439 160.161L159.253 159.724L158.881 158.878L157.966 159.28ZM151.902 162.537L151.032 163.031L151.515 163.881L152.375 163.418L151.902 162.537ZM140.777 160.834L140.07 160.126L140.07 160.126L140.777 160.834ZM151.902 170.055L152.381 169.177L151.509 168.701L151.027 169.57L151.902 170.055ZM157.966 173.362L158.877 173.775L159.26 172.929L158.445 172.484L157.966 173.362ZM153.305 178.374L152.815 177.502L152.809 177.505L153.305 178.374ZM145.888 180.178V179.178C143.154 179.178 140.723 178.623 138.573 177.532L138.121 178.424L137.668 179.316C140.129 180.564 142.876 181.178 145.888 181.178V180.178ZM138.121 178.424L138.588 177.54C136.467 176.417 134.814 174.884 133.609 172.936L132.758 173.462L131.908 173.989C133.308 176.251 135.23 178.025 137.653 179.308L138.121 178.424ZM132.758 173.462L133.615 172.946C132.447 171.011 131.854 168.803 131.854 166.296H130.854H129.854C129.854 169.134 130.53 171.705 131.902 173.979L132.758 173.462ZM130.854 166.296H131.854C131.854 163.789 132.447 161.582 133.615 159.646L132.758 159.13L131.902 158.613C130.53 160.887 129.854 163.458 129.854 166.296H130.854ZM132.758 159.13L133.609 159.656C134.813 157.711 136.462 156.197 138.578 155.108L138.121 154.218L137.663 153.329C135.235 154.579 133.31 156.339 131.908 158.603L132.758 159.13ZM138.121 154.218L138.583 155.105C140.731 153.984 143.159 153.414 145.888 153.414V152.414V151.414C142.871 151.414 140.121 152.047 137.658 153.332L138.121 154.218ZM145.888 152.414V153.414C148.584 153.414 150.88 153.984 152.809 155.087L153.305 154.218L153.801 153.35C151.521 152.047 148.872 151.414 145.888 151.414V152.414ZM153.305 154.218L152.825 155.096C154.772 156.161 156.171 157.682 157.05 159.682L157.966 159.28L158.881 158.878C157.823 156.468 156.114 154.615 153.785 153.341L153.305 154.218ZM157.966 159.28L157.493 158.399L151.429 161.657L151.902 162.537L152.375 163.418L158.439 160.161L157.966 159.28ZM151.902 162.537L152.772 162.044C151.208 159.288 148.87 157.829 145.838 157.829V158.829V159.829C148.085 159.829 149.79 160.842 151.032 163.031L151.902 162.537ZM145.838 158.829V157.829C143.558 157.829 141.609 158.587 140.07 160.126L140.777 160.834L141.484 161.541C142.617 160.407 144.042 159.829 145.838 159.829V158.829ZM140.777 160.834L140.07 160.126C138.506 161.69 137.772 163.788 137.772 166.296H138.772H139.772C139.772 164.194 140.375 162.65 141.484 161.541L140.777 160.834ZM138.772 166.296H137.772C137.772 168.804 138.506 170.902 140.07 172.466L140.777 171.759L141.484 171.051C140.375 169.942 139.772 168.398 139.772 166.296H138.772ZM140.777 171.759L140.07 172.466C141.609 174.005 143.558 174.763 145.838 174.763V173.763V172.763C144.042 172.763 142.617 172.185 141.484 171.051L140.777 171.759ZM145.838 173.763V174.763C147.335 174.763 148.693 174.415 149.88 173.689C151.065 172.965 152.024 171.898 152.777 170.539L151.902 170.055L151.027 169.57C150.41 170.684 149.674 171.471 148.837 171.983C148.003 172.493 147.015 172.763 145.838 172.763V173.763ZM151.902 170.055L151.423 170.933L157.487 174.24L157.966 173.362L158.445 172.484L152.381 169.177L151.902 170.055ZM157.966 173.362L157.055 172.949C156.178 174.885 154.777 176.399 152.815 177.502L153.305 178.374L153.795 179.245C156.11 177.943 157.816 176.116 158.877 173.775L157.966 173.362ZM153.305 178.374L152.809 177.505C150.88 178.608 148.584 179.178 145.888 179.178V180.178V181.178C148.872 181.178 151.521 180.545 153.801 179.242L153.305 178.374ZM164.973 179.376L164.716 180.342L164.723 180.344L164.73 180.346L164.973 179.376ZM159.861 177.271L158.954 176.85L158.591 177.632L159.312 178.107L159.861 177.271ZM162.467 171.658L163.006 170.816L162.042 170.2L161.56 171.237L162.467 171.658ZM166.827 173.563L166.545 174.522L166.554 174.525L166.562 174.527L166.827 173.563ZM175.447 170.155L175.1 171.093L175.1 171.093L175.447 170.155ZM171.287 169.303L171.138 170.292L171.15 170.294L171.163 170.295L171.287 169.303ZM165.825 168.15L166.114 167.193L166.114 167.193L165.825 168.15ZM162.066 165.845L161.337 166.53L161.343 166.535L161.348 166.541L162.066 165.845ZM161.966 156.624L161.166 156.024L161.164 156.027L161.966 156.624ZM166.276 153.517L165.916 152.584L165.91 152.586L166.276 153.517ZM178.654 153.066L178.428 154.04L178.438 154.042L178.448 154.044L178.654 153.066ZM183.365 154.77L184.27 155.194L184.655 154.373L183.876 153.91L183.365 154.77ZM180.759 160.332L180.268 161.204L181.207 161.733L181.665 160.757L180.759 160.332ZM169.233 159.029L168.744 158.157L168.744 158.157L169.233 159.029ZM169.333 162.588L169.68 161.65L169.68 161.65L169.333 162.588ZM173.643 163.54L173.807 162.553L173.793 162.551L173.643 163.54ZM179.055 164.743L178.759 165.698L178.77 165.701L178.78 165.704L179.055 164.743ZM182.713 166.998L181.985 167.682L181.985 167.682L182.713 166.998ZM182.764 176.068L183.556 176.678L183.556 176.678L182.764 176.068ZM178.353 179.125L178.699 180.064L178.708 180.06L178.353 179.125ZM171.538 180.178V179.178C169.38 179.178 167.273 178.92 165.215 178.406L164.973 179.376L164.73 180.346C166.949 180.901 169.219 181.178 171.538 181.178V180.178ZM164.973 179.376L165.23 178.409C163.152 177.858 161.56 177.191 160.411 176.436L159.861 177.271L159.312 178.107C160.702 179.021 162.517 179.758 164.716 180.342L164.973 179.376ZM159.861 177.271L160.768 177.692L163.374 172.079L162.467 171.658L161.56 171.237L158.954 176.85L159.861 177.271ZM162.467 171.658L161.929 172.501C163.228 173.331 164.772 174 166.545 174.522L166.827 173.563L167.109 172.603C165.475 172.123 164.112 171.523 163.006 170.816L162.467 171.658ZM166.827 173.563L166.562 174.527C168.346 175.017 170.105 175.264 171.839 175.264V174.264V173.264C170.298 173.264 168.716 173.044 167.092 172.598L166.827 173.563ZM171.839 174.264V175.264C173.543 175.264 174.969 175.059 176.003 174.547C176.534 174.284 176.994 173.924 177.319 173.442C177.649 172.952 177.8 172.395 177.8 171.809H176.8H175.8C175.8 172.041 175.744 172.2 175.66 172.324C175.572 172.456 175.412 172.608 175.116 172.754C174.497 173.061 173.442 173.264 171.839 173.264V174.264ZM176.8 171.809H177.8C177.8 171.213 177.619 170.655 177.236 170.186C176.865 169.732 176.356 169.425 175.794 169.217L175.447 170.155L175.1 171.093C175.44 171.219 175.608 171.354 175.688 171.452C175.755 171.535 175.8 171.636 175.8 171.809H176.8ZM175.447 170.155L175.794 169.217C174.78 168.842 173.301 168.547 171.411 168.311L171.287 169.303L171.163 170.295C173.016 170.527 174.309 170.8 175.1 171.093L175.447 170.155ZM171.287 169.303L171.437 168.314C169.259 167.984 167.489 167.609 166.114 167.193L165.825 168.15L165.535 169.108C167.034 169.561 168.906 169.953 171.138 170.292L171.287 169.303ZM165.825 168.15L166.114 167.193C164.844 166.809 163.738 166.132 162.784 165.149L162.066 165.845L161.348 166.541C162.533 167.763 163.932 168.623 165.535 169.108L165.825 168.15ZM162.066 165.845L162.795 165.16C161.987 164.3 161.513 163.008 161.513 161.134H160.513H159.513C159.513 163.337 160.074 165.185 161.337 166.53L162.066 165.845ZM160.513 161.134H161.513C161.513 159.634 161.934 158.342 162.768 157.221L161.966 156.624L161.164 156.027C160.06 157.512 159.513 159.227 159.513 161.134H160.513ZM161.966 156.624L162.766 157.224C163.636 156.064 164.908 155.129 166.642 154.448L166.276 153.517L165.91 152.586C163.902 153.375 162.3 154.511 161.166 156.024L161.966 156.624ZM166.276 153.517L166.636 154.45C168.4 153.769 170.511 153.414 172.991 153.414V152.414V151.414C170.326 151.414 167.961 151.795 165.916 152.584L166.276 153.517ZM172.991 152.414V153.414C174.819 153.414 176.631 153.623 178.428 154.04L178.654 153.066L178.88 152.092C176.936 151.64 174.972 151.414 172.991 151.414V152.414ZM178.654 153.066L178.448 154.044C180.28 154.43 181.739 154.966 182.854 155.629L183.365 154.77L183.876 153.91C182.519 153.103 180.837 152.503 178.86 152.087L178.654 153.066ZM183.365 154.77L182.459 154.346L179.853 159.908L180.759 160.332L181.665 160.757L184.27 155.194L183.365 154.77ZM180.759 160.332L181.25 159.461C178.723 158.038 175.964 157.328 172.991 157.328V158.328V159.328C175.631 159.328 178.051 159.954 180.268 161.204L180.759 160.332ZM172.991 158.328V157.328C171.26 157.328 169.802 157.565 168.744 158.157L169.233 159.029L169.721 159.902C170.334 159.559 171.381 159.328 172.991 159.328V158.328ZM169.233 159.029L168.744 158.157C167.703 158.74 166.98 159.626 166.98 160.834H167.98H168.98C168.98 160.571 169.092 160.255 169.721 159.902L169.233 159.029ZM167.98 160.834H166.98C166.98 161.442 167.148 162.019 167.526 162.509C167.896 162.989 168.411 163.313 168.986 163.525L169.333 162.588L169.68 161.65C169.353 161.529 169.191 161.393 169.11 161.288C169.037 161.193 168.98 161.061 168.98 160.834H167.98ZM169.333 162.588L168.986 163.525C169.988 163.897 171.509 164.226 173.492 164.528L173.643 163.54L173.793 162.551C171.834 162.252 170.482 161.947 169.68 161.65L169.333 162.588ZM173.643 163.54L173.478 164.526C175.659 164.89 177.415 165.282 178.759 165.698L179.055 164.743L179.351 163.787C177.889 163.335 176.036 162.925 173.807 162.553L173.643 163.54ZM179.055 164.743L178.78 165.704C180.003 166.053 181.068 166.706 181.985 167.682L182.713 166.998L183.442 166.313C182.288 165.084 180.913 164.233 179.33 163.781L179.055 164.743ZM182.713 166.998L181.985 167.682C182.798 168.549 183.267 169.812 183.267 171.608H184.267H185.267C185.267 169.462 184.7 167.652 183.442 166.313L182.713 166.998ZM184.267 171.608H183.267C183.267 173.062 182.836 174.334 181.971 175.459L182.764 176.068L183.556 176.678C184.695 175.197 185.267 173.495 185.267 171.608H184.267ZM182.764 176.068L181.971 175.459C181.108 176.581 179.808 177.504 177.999 178.19L178.353 179.125L178.708 180.06C180.774 179.277 182.415 178.162 183.556 176.678L182.764 176.068ZM178.353 179.125L178.008 178.187C176.242 178.838 174.093 179.178 171.538 179.178V180.178V181.178C174.262 181.178 176.656 180.816 178.699 180.064L178.353 179.125Z" fill="black" mask="url(#path-2-inside-1_5_1934)"/>
</svg>
