<?xml version="1.0" standalone="no"?>
<!DOCTYPE svg PUBLIC "-//W3C//DTD SVG 20010904//EN"
 "http://www.w3.org/TR/2001/REC-SVG-20010904/DTD/svg10.dtd">
<svg version="1.0" xmlns="http://www.w3.org/2000/svg"
 width="1024.000000pt" height="1024.000000pt" viewBox="0 0 1024.000000 1024.000000"
 preserveAspectRatio="xMidYMid meet">

<g transform="translate(0.000000,1024.000000) scale(0.100000,-0.100000)"
fill="#000000" stroke="none">
<path d="M0 5120 l0 -5120 5120 0 5120 0 0 5120 0 5120 -5120 0 -5120 0 0
-5120z m5216 3299 c126 -23 1603 -438 1659 -466 43 -22 104 -82 126 -126 19
-37 20 -62 19 -941 0 -744 -3 -920 -15 -1002 -100 -668 -551 -1232 -1332
-1667 -208 -115 -372 -185 -472 -199 -67 -10 -91 -9 -156 5 -220 47 -652 290
-965 541 -121 96 -350 332 -437 449 -206 277 -336 590 -378 915 -13 98 -15
255 -13 987 3 838 4 871 22 909 25 49 75 100 125 126 53 27 1551 451 1661 470
66 11 90 11 156 -1z m-806 -4809 c60 -17 59 -17 43 -110 l-15 -86 -62 4 c-55
4 -66 1 -91 -20 -24 -21 -29 -34 -33 -86 l-4 -62 91 0 91 0 0 -90 0 -90 -90 0
-90 0 0 -370 0 -370 -115 0 -115 0 0 370 0 370 -70 0 -70 0 0 90 0 90 68 0 67
0 2 78 c5 138 69 233 186 273 58 20 153 24 207 9z m-1885 -45 c175 -46 305
-185 305 -326 l0 -40 -112 3 -112 3 -7 28 c-12 43 -56 95 -102 119 -57 30
-165 31 -222 3 -77 -39 -107 -124 -66 -192 26 -42 113 -82 266 -122 66 -18
148 -45 181 -60 115 -54 186 -139 202 -243 31 -197 -89 -355 -308 -409 -124
-30 -329 -10 -432 42 -109 56 -194 178 -200 289 l-3 55 114 0 114 0 14 -47
c16 -55 72 -108 132 -126 50 -15 163 -15 214 0 22 7 55 26 73 44 29 27 34 38
34 78 0 100 -44 133 -262 192 -73 20 -161 49 -195 64 -76 35 -146 98 -181 165
-24 44 -27 61 -27 140 1 77 5 97 27 140 51 97 166 182 278 204 74 14 211 12
275 -4z m3158 -205 c44 -113 106 -297 138 -410 75 -260 106 -349 112 -330 22
59 75 239 109 365 35 135 181 558 198 578 4 4 70 6 147 5 l141 -3 -44 -115
c-25 -63 -63 -167 -85 -230 -43 -121 -216 -605 -277 -773 l-35 -97 -160 2
-159 3 -128 355 c-165 462 -208 578 -268 733 l-50 128 141 -3 141 -3 79 -205z
m1357 -86 c36 -8 83 -26 106 -39 59 -34 119 -107 132 -157 7 -25 14 -186 17
-380 l5 -338 -115 0 -115 0 0 65 0 64 -45 -48 c-64 -69 -127 -94 -235 -95
-139 -2 -229 43 -287 141 -38 66 -44 179 -13 246 45 95 133 137 330 157 141
15 187 27 210 58 25 31 25 58 0 100 -25 41 -73 62 -142 62 -66 0 -116 -24
-143 -68 l-20 -33 -103 4 c-56 2 -105 6 -108 10 -12 12 28 105 62 145 39 46
134 97 204 111 72 14 190 12 260 -5z m720 -154 c47 -88 87 -159 90 -159 3 0
44 70 91 157 l87 157 132 3 132 3 -19 -33 c-11 -18 -75 -124 -142 -234 l-123
-201 136 -222 c75 -122 136 -224 136 -226 0 -3 -56 -5 -124 -5 -109 0 -125 2
-131 18 -3 9 -43 76 -88 149 l-82 131 -39 -61 c-21 -34 -61 -101 -89 -149
l-50 -88 -129 0 -129 0 29 43 c16 23 79 124 141 224 l112 181 -139 224 c-76
122 -142 229 -146 236 -6 9 22 12 126 12 l133 0 85 -160z m-4280 139 c124 -20
224 -84 273 -174 21 -39 22 -53 25 -397 l3 -358 -115 0 -116 0 0 56 0 57 -44
-41 c-58 -53 -93 -71 -165 -80 -131 -18 -259 21 -322 97 -85 104 -78 273 16
360 54 49 110 67 280 87 74 8 148 23 172 34 42 19 43 20 43 68 0 61 -28 95
-91 112 -86 23 -178 -7 -208 -67 -15 -31 -18 -33 -77 -33 -34 0 -82 3 -107 6
-44 6 -46 8 -41 33 31 132 129 214 287 240 74 12 113 12 187 0z m1602 -18
c172 -59 267 -212 268 -428 l0 -73 -310 0 -310 0 0 -32 c0 -91 58 -176 135
-197 95 -26 200 0 233 59 l17 30 118 0 c118 0 118 0 112 -22 -26 -88 -92 -171
-167 -209 -185 -94 -458 -59 -574 74 -58 66 -101 169 -114 268 -43 332 158
572 465 554 39 -2 96 -13 127 -24z"/>
<path d="M5060 8205 c-87 -22 -853 -235 -1219 -339 -183 -52 -342 -103 -352
-112 -18 -16 -19 -48 -19 -895 0 -847 1 -882 21 -985 71 -369 239 -674 534
-969 267 -267 714 -557 1023 -663 109 -38 134 -32 397 98 301 149 549 321 773
535 311 298 476 581 559 959 l27 121 3 891 c4 880 4 890 -16 908 -23 21 -110
47 -956 281 -347 96 -651 177 -675 180 -25 2 -70 -2 -100 -10z m390 -486 c165
-26 285 -131 325 -285 21 -82 21 -363 0 -404 -19 -37 -43 -50 -92 -50 -90 0
-113 49 -113 237 0 150 -12 195 -61 240 -54 50 -79 53 -377 53 -273 0 -280 -1
-323 -23 -24 -13 -57 -43 -74 -66 l-30 -43 1 -171 c1 -199 17 -288 83 -463 23
-59 41 -120 41 -136 0 -39 -35 -126 -61 -154 -48 -51 -129 -12 -129 62 0 24
-18 77 -50 145 -69 148 -88 237 -102 461 -13 212 -6 292 35 382 47 102 164
193 277 215 64 13 573 13 650 0z m-1147 -930 c38 -19 57 -51 57 -97 0 -36 -5
-49 -31 -73 -31 -29 -32 -29 -153 -29 -144 0 -184 -14 -203 -70 -16 -48 -16
-482 0 -530 22 -64 49 -70 308 -70 244 0 266 -4 328 -56 17 -14 44 -47 59 -73
l27 -46 5 -265 c5 -244 7 -268 26 -305 24 -46 69 -80 126 -96 25 -6 142 -9
311 -7 269 3 272 3 316 28 64 36 91 91 91 186 0 67 3 77 29 106 23 26 37 33
68 33 47 0 90 -26 104 -63 6 -15 9 -70 7 -122 -3 -81 -8 -105 -34 -160 -39
-82 -101 -145 -184 -184 l-65 -31 -333 -3 c-284 -3 -341 -1 -390 13 -123 35
-225 133 -262 252 -17 57 -20 93 -20 278 0 223 -7 266 -44 288 -14 8 -97 14
-256 17 -216 5 -238 7 -276 27 -53 28 -100 77 -132 138 l-27 50 -3 321 c-3
305 -2 323 18 377 24 65 84 131 143 158 36 16 67 19 205 19 101 0 172 -4 185
-11z m2041 -1 c27 -8 60 -31 97 -68 88 -88 91 -104 87 -476 l-3 -309 -27 -52
c-32 -61 -87 -116 -143 -146 -35 -19 -60 -22 -191 -25 -175 -4 -205 4 -230 65
-20 46 -10 86 28 118 28 24 36 25 150 25 130 0 166 11 187 57 15 33 15 537 0
565 -21 38 -68 48 -237 48 -143 0 -162 2 -184 20 -57 44 -57 125 -1 170 24 19
40 20 226 20 127 0 215 -4 241 -12z m-1219 -380 c334 -347 475 -499 491 -531
9 -16 21 -50 28 -76 12 -47 110 -201 219 -344 43 -57 56 -82 48 -90 -12 -12
-10 -14 -166 129 -132 121 -151 134 -189 134 -48 0 -105 35 -200 124 l-90 83
52 66 c53 67 61 90 40 103 -11 7 -47 -27 -100 -96 l-26 -35 -45 44 -45 44 64
73 c66 76 80 116 47 129 -14 5 -35 -13 -89 -72 l-71 -77 -69 61 c-38 34 -125
118 -194 187 -124 126 -125 126 -91 126 27 0 43 9 76 43 50 52 90 151 82 200
-5 28 -5 30 6 12 7 -10 107 -117 222 -237z"/>
<path d="M5006 6375 c-20 -20 -20 -29 -2 -44 11 -9 18 -8 30 4 20 20 20 29 2
44 -11 9 -18 8 -30 -4z"/>
<path d="M5120 6240 c-9 -16 -9 -25 -1 -33 16 -16 46 4 46 29 0 27 -31 29 -45
4z"/>
<path d="M7018 2775 c-2 -3 -52 -12 -110 -20 -127 -18 -152 -26 -174 -60 -19
-29 -21 -94 -3 -123 28 -45 113 -70 178 -52 52 14 99 54 122 105 22 49 26 155
6 155 -8 0 -16 -2 -19 -5z"/>
<path d="M3514 2750 c-12 -5 -66 -14 -120 -20 -124 -14 -164 -33 -183 -86 -12
-34 -11 -44 2 -76 22 -52 58 -73 131 -73 112 0 177 58 192 171 9 74 4 93 -22
84z"/>
<path d="M4857 3076 c-66 -24 -106 -77 -121 -158 l-7 -38 201 0 202 0 -7 33
c-13 61 -47 118 -87 144 -47 32 -125 40 -181 19z"/>
</g>
</svg>
